<mxfile host="app.diagrams.net" modified="2023-11-17T18:16:33.693Z" agent="Mozilla/5.0 (Windows NT 10.0; Win64; x64) AppleWebKit/537.36 (KHTML, like Gecko) Chrome/119.0.0.0 Safari/537.36" etag="uZAweHJFj_o23kJCoScr" version="22.1.3" type="github">
  <diagram name="Page-1" id="0tuLwzUozmUHdHJlJOqu">
    <mxGraphModel dx="743" dy="782" grid="1" gridSize="10" guides="1" tooltips="1" connect="1" arrows="1" fold="1" page="1" pageScale="1" pageWidth="850" pageHeight="1100" math="0" shadow="0">
      <root>
        <mxCell id="0" />
        <mxCell id="1" parent="0" />
        <mxCell id="bSMvVPboWSpiL0ENMX8w-1" value="&lt;font style=&quot;font-size: 24px;&quot;&gt;CyberQueenMeg Cipher&lt;/font&gt;" style="text;html=1;strokeColor=none;fillColor=none;align=center;verticalAlign=middle;whiteSpace=wrap;rounded=0;" vertex="1" parent="1">
          <mxGeometry x="390" y="70" width="60" height="30" as="geometry" />
        </mxCell>
        <mxCell id="bSMvVPboWSpiL0ENMX8w-27" style="edgeStyle=orthogonalEdgeStyle;rounded=0;orthogonalLoop=1;jettySize=auto;html=1;entryX=0.5;entryY=0;entryDx=0;entryDy=0;" edge="1" parent="1" source="bSMvVPboWSpiL0ENMX8w-2" target="bSMvVPboWSpiL0ENMX8w-4">
          <mxGeometry relative="1" as="geometry" />
        </mxCell>
        <mxCell id="bSMvVPboWSpiL0ENMX8w-2" value="" style="rounded=0;whiteSpace=wrap;html=1;" vertex="1" parent="1">
          <mxGeometry x="360" y="140" width="120" height="60" as="geometry" />
        </mxCell>
        <mxCell id="bSMvVPboWSpiL0ENMX8w-3" value="Full Name Access (verifcation for entry)" style="text;html=1;strokeColor=none;fillColor=none;align=center;verticalAlign=middle;whiteSpace=wrap;rounded=0;" vertex="1" parent="1">
          <mxGeometry x="390" y="155" width="60" height="30" as="geometry" />
        </mxCell>
        <mxCell id="bSMvVPboWSpiL0ENMX8w-11" style="edgeStyle=orthogonalEdgeStyle;rounded=0;orthogonalLoop=1;jettySize=auto;html=1;entryX=0.5;entryY=0;entryDx=0;entryDy=0;" edge="1" parent="1" source="bSMvVPboWSpiL0ENMX8w-4" target="bSMvVPboWSpiL0ENMX8w-7">
          <mxGeometry relative="1" as="geometry" />
        </mxCell>
        <mxCell id="bSMvVPboWSpiL0ENMX8w-4" value="" style="rounded=0;whiteSpace=wrap;html=1;" vertex="1" parent="1">
          <mxGeometry x="360" y="230" width="120" height="60" as="geometry" />
        </mxCell>
        <mxCell id="bSMvVPboWSpiL0ENMX8w-13" style="edgeStyle=orthogonalEdgeStyle;rounded=0;orthogonalLoop=1;jettySize=auto;html=1;" edge="1" parent="1" source="bSMvVPboWSpiL0ENMX8w-5">
          <mxGeometry relative="1" as="geometry">
            <mxPoint x="420" y="330" as="targetPoint" />
          </mxGeometry>
        </mxCell>
        <mxCell id="bSMvVPboWSpiL0ENMX8w-5" value="Main Menu" style="text;html=1;strokeColor=none;fillColor=none;align=center;verticalAlign=middle;whiteSpace=wrap;rounded=0;" vertex="1" parent="1">
          <mxGeometry x="390" y="245" width="60" height="30" as="geometry" />
        </mxCell>
        <mxCell id="bSMvVPboWSpiL0ENMX8w-17" style="edgeStyle=orthogonalEdgeStyle;rounded=0;orthogonalLoop=1;jettySize=auto;html=1;entryX=0.5;entryY=0;entryDx=0;entryDy=0;" edge="1" parent="1" source="bSMvVPboWSpiL0ENMX8w-7" target="bSMvVPboWSpiL0ENMX8w-14">
          <mxGeometry relative="1" as="geometry" />
        </mxCell>
        <mxCell id="bSMvVPboWSpiL0ENMX8w-28" style="edgeStyle=orthogonalEdgeStyle;rounded=0;orthogonalLoop=1;jettySize=auto;html=1;entryX=0.5;entryY=0;entryDx=0;entryDy=0;" edge="1" parent="1" source="bSMvVPboWSpiL0ENMX8w-7" target="bSMvVPboWSpiL0ENMX8w-20">
          <mxGeometry relative="1" as="geometry" />
        </mxCell>
        <mxCell id="bSMvVPboWSpiL0ENMX8w-7" value="" style="rounded=0;whiteSpace=wrap;html=1;" vertex="1" parent="1">
          <mxGeometry x="530" y="280" width="120" height="60" as="geometry" />
        </mxCell>
        <mxCell id="bSMvVPboWSpiL0ENMX8w-8" value="Decrypt text" style="text;html=1;strokeColor=none;fillColor=none;align=center;verticalAlign=middle;whiteSpace=wrap;rounded=0;" vertex="1" parent="1">
          <mxGeometry x="560" y="295" width="60" height="30" as="geometry" />
        </mxCell>
        <mxCell id="bSMvVPboWSpiL0ENMX8w-16" style="edgeStyle=orthogonalEdgeStyle;rounded=0;orthogonalLoop=1;jettySize=auto;html=1;entryX=0.5;entryY=0;entryDx=0;entryDy=0;" edge="1" parent="1" source="bSMvVPboWSpiL0ENMX8w-9" target="bSMvVPboWSpiL0ENMX8w-14">
          <mxGeometry relative="1" as="geometry" />
        </mxCell>
        <mxCell id="bSMvVPboWSpiL0ENMX8w-26" style="edgeStyle=orthogonalEdgeStyle;rounded=0;orthogonalLoop=1;jettySize=auto;html=1;" edge="1" parent="1" source="bSMvVPboWSpiL0ENMX8w-9" target="bSMvVPboWSpiL0ENMX8w-18">
          <mxGeometry relative="1" as="geometry" />
        </mxCell>
        <mxCell id="bSMvVPboWSpiL0ENMX8w-9" value="" style="rounded=0;whiteSpace=wrap;html=1;" vertex="1" parent="1">
          <mxGeometry x="190" y="280" width="120" height="60" as="geometry" />
        </mxCell>
        <mxCell id="bSMvVPboWSpiL0ENMX8w-10" value="Encrypt text" style="text;html=1;strokeColor=none;fillColor=none;align=center;verticalAlign=middle;whiteSpace=wrap;rounded=0;" vertex="1" parent="1">
          <mxGeometry x="220" y="295" width="60" height="30" as="geometry" />
        </mxCell>
        <mxCell id="bSMvVPboWSpiL0ENMX8w-12" style="edgeStyle=orthogonalEdgeStyle;rounded=0;orthogonalLoop=1;jettySize=auto;html=1;entryX=0.367;entryY=0;entryDx=0;entryDy=0;entryPerimeter=0;" edge="1" parent="1" source="bSMvVPboWSpiL0ENMX8w-4" target="bSMvVPboWSpiL0ENMX8w-9">
          <mxGeometry relative="1" as="geometry" />
        </mxCell>
        <mxCell id="bSMvVPboWSpiL0ENMX8w-14" value="" style="rounded=0;whiteSpace=wrap;html=1;" vertex="1" parent="1">
          <mxGeometry x="360" y="340" width="120" height="60" as="geometry" />
        </mxCell>
        <mxCell id="bSMvVPboWSpiL0ENMX8w-15" value="Exit" style="text;html=1;strokeColor=none;fillColor=none;align=center;verticalAlign=middle;whiteSpace=wrap;rounded=0;" vertex="1" parent="1">
          <mxGeometry x="390" y="355" width="60" height="30" as="geometry" />
        </mxCell>
        <mxCell id="bSMvVPboWSpiL0ENMX8w-49" style="edgeStyle=orthogonalEdgeStyle;rounded=0;orthogonalLoop=1;jettySize=auto;html=1;entryX=0.5;entryY=0;entryDx=0;entryDy=0;" edge="1" parent="1" source="bSMvVPboWSpiL0ENMX8w-18" target="bSMvVPboWSpiL0ENMX8w-44">
          <mxGeometry relative="1" as="geometry" />
        </mxCell>
        <mxCell id="bSMvVPboWSpiL0ENMX8w-18" value="" style="rounded=0;whiteSpace=wrap;html=1;" vertex="1" parent="1">
          <mxGeometry x="190" y="370" width="120" height="60" as="geometry" />
        </mxCell>
        <mxCell id="bSMvVPboWSpiL0ENMX8w-19" value="Enter text to encrypt" style="text;html=1;strokeColor=none;fillColor=none;align=center;verticalAlign=middle;whiteSpace=wrap;rounded=0;" vertex="1" parent="1">
          <mxGeometry x="220" y="385" width="60" height="30" as="geometry" />
        </mxCell>
        <mxCell id="bSMvVPboWSpiL0ENMX8w-48" style="edgeStyle=orthogonalEdgeStyle;rounded=0;orthogonalLoop=1;jettySize=auto;html=1;entryX=0.5;entryY=0;entryDx=0;entryDy=0;" edge="1" parent="1" source="bSMvVPboWSpiL0ENMX8w-20" target="bSMvVPboWSpiL0ENMX8w-46">
          <mxGeometry relative="1" as="geometry" />
        </mxCell>
        <mxCell id="bSMvVPboWSpiL0ENMX8w-20" value="" style="rounded=0;whiteSpace=wrap;html=1;" vertex="1" parent="1">
          <mxGeometry x="530" y="370" width="120" height="60" as="geometry" />
        </mxCell>
        <mxCell id="bSMvVPboWSpiL0ENMX8w-21" value="Enter text to decrypt" style="text;html=1;strokeColor=none;fillColor=none;align=center;verticalAlign=middle;whiteSpace=wrap;rounded=0;" vertex="1" parent="1">
          <mxGeometry x="560" y="385" width="60" height="30" as="geometry" />
        </mxCell>
        <mxCell id="bSMvVPboWSpiL0ENMX8w-41" style="edgeStyle=orthogonalEdgeStyle;rounded=0;orthogonalLoop=1;jettySize=auto;html=1;entryX=0.5;entryY=0;entryDx=0;entryDy=0;" edge="1" parent="1" source="bSMvVPboWSpiL0ENMX8w-30" target="bSMvVPboWSpiL0ENMX8w-36">
          <mxGeometry relative="1" as="geometry" />
        </mxCell>
        <mxCell id="bSMvVPboWSpiL0ENMX8w-30" value="" style="rounded=0;whiteSpace=wrap;html=1;" vertex="1" parent="1">
          <mxGeometry x="190" y="560" width="120" height="60" as="geometry" />
        </mxCell>
        <mxCell id="bSMvVPboWSpiL0ENMX8w-31" value="UDF to encrypt text with the cipher" style="text;html=1;strokeColor=none;fillColor=none;align=center;verticalAlign=middle;whiteSpace=wrap;rounded=0;" vertex="1" parent="1">
          <mxGeometry x="220" y="575" width="60" height="30" as="geometry" />
        </mxCell>
        <mxCell id="bSMvVPboWSpiL0ENMX8w-32" value="" style="rounded=0;whiteSpace=wrap;html=1;" vertex="1" parent="1">
          <mxGeometry x="530" y="560" width="120" height="60" as="geometry" />
        </mxCell>
        <mxCell id="bSMvVPboWSpiL0ENMX8w-40" style="edgeStyle=orthogonalEdgeStyle;rounded=0;orthogonalLoop=1;jettySize=auto;html=1;entryX=0.5;entryY=0;entryDx=0;entryDy=0;" edge="1" parent="1" source="bSMvVPboWSpiL0ENMX8w-33" target="bSMvVPboWSpiL0ENMX8w-38">
          <mxGeometry relative="1" as="geometry" />
        </mxCell>
        <mxCell id="bSMvVPboWSpiL0ENMX8w-33" value="UDF to decrypt text with the cipher" style="text;html=1;strokeColor=none;fillColor=none;align=center;verticalAlign=middle;whiteSpace=wrap;rounded=0;" vertex="1" parent="1">
          <mxGeometry x="560" y="575" width="60" height="30" as="geometry" />
        </mxCell>
        <mxCell id="bSMvVPboWSpiL0ENMX8w-42" style="edgeStyle=orthogonalEdgeStyle;rounded=0;orthogonalLoop=1;jettySize=auto;html=1;entryX=0.5;entryY=1;entryDx=0;entryDy=0;" edge="1" parent="1" source="bSMvVPboWSpiL0ENMX8w-36" target="bSMvVPboWSpiL0ENMX8w-14">
          <mxGeometry relative="1" as="geometry" />
        </mxCell>
        <mxCell id="bSMvVPboWSpiL0ENMX8w-36" value="" style="rounded=0;whiteSpace=wrap;html=1;" vertex="1" parent="1">
          <mxGeometry x="190" y="650" width="120" height="60" as="geometry" />
        </mxCell>
        <mxCell id="bSMvVPboWSpiL0ENMX8w-37" value="Show Result" style="text;html=1;strokeColor=none;fillColor=none;align=center;verticalAlign=middle;whiteSpace=wrap;rounded=0;" vertex="1" parent="1">
          <mxGeometry x="220" y="665" width="60" height="30" as="geometry" />
        </mxCell>
        <mxCell id="bSMvVPboWSpiL0ENMX8w-43" style="edgeStyle=orthogonalEdgeStyle;rounded=0;orthogonalLoop=1;jettySize=auto;html=1;" edge="1" parent="1" source="bSMvVPboWSpiL0ENMX8w-38">
          <mxGeometry relative="1" as="geometry">
            <mxPoint x="420" y="400" as="targetPoint" />
          </mxGeometry>
        </mxCell>
        <mxCell id="bSMvVPboWSpiL0ENMX8w-38" value="" style="rounded=0;whiteSpace=wrap;html=1;" vertex="1" parent="1">
          <mxGeometry x="530" y="650" width="120" height="60" as="geometry" />
        </mxCell>
        <mxCell id="bSMvVPboWSpiL0ENMX8w-39" value="Show Result" style="text;html=1;strokeColor=none;fillColor=none;align=center;verticalAlign=middle;whiteSpace=wrap;rounded=0;" vertex="1" parent="1">
          <mxGeometry x="560" y="665" width="60" height="30" as="geometry" />
        </mxCell>
        <mxCell id="bSMvVPboWSpiL0ENMX8w-51" style="edgeStyle=orthogonalEdgeStyle;rounded=0;orthogonalLoop=1;jettySize=auto;html=1;entryX=0.5;entryY=0;entryDx=0;entryDy=0;" edge="1" parent="1" source="bSMvVPboWSpiL0ENMX8w-44" target="bSMvVPboWSpiL0ENMX8w-30">
          <mxGeometry relative="1" as="geometry" />
        </mxCell>
        <mxCell id="bSMvVPboWSpiL0ENMX8w-53" style="edgeStyle=orthogonalEdgeStyle;rounded=0;orthogonalLoop=1;jettySize=auto;html=1;entryX=0;entryY=0.25;entryDx=0;entryDy=0;" edge="1" parent="1" source="bSMvVPboWSpiL0ENMX8w-44" target="bSMvVPboWSpiL0ENMX8w-18">
          <mxGeometry relative="1" as="geometry" />
        </mxCell>
        <mxCell id="bSMvVPboWSpiL0ENMX8w-44" value="" style="rounded=0;whiteSpace=wrap;html=1;" vertex="1" parent="1">
          <mxGeometry x="190" y="470" width="120" height="60" as="geometry" />
        </mxCell>
        <mxCell id="bSMvVPboWSpiL0ENMX8w-45" value="UDF to check for invalid characters" style="text;html=1;strokeColor=none;fillColor=none;align=center;verticalAlign=middle;whiteSpace=wrap;rounded=0;" vertex="1" parent="1">
          <mxGeometry x="220" y="485" width="60" height="30" as="geometry" />
        </mxCell>
        <mxCell id="bSMvVPboWSpiL0ENMX8w-52" style="edgeStyle=orthogonalEdgeStyle;rounded=0;orthogonalLoop=1;jettySize=auto;html=1;entryX=0.5;entryY=0;entryDx=0;entryDy=0;" edge="1" parent="1" source="bSMvVPboWSpiL0ENMX8w-46" target="bSMvVPboWSpiL0ENMX8w-32">
          <mxGeometry relative="1" as="geometry" />
        </mxCell>
        <mxCell id="bSMvVPboWSpiL0ENMX8w-54" style="edgeStyle=orthogonalEdgeStyle;rounded=0;orthogonalLoop=1;jettySize=auto;html=1;entryX=1;entryY=0.5;entryDx=0;entryDy=0;" edge="1" parent="1" source="bSMvVPboWSpiL0ENMX8w-46" target="bSMvVPboWSpiL0ENMX8w-20">
          <mxGeometry relative="1" as="geometry" />
        </mxCell>
        <mxCell id="bSMvVPboWSpiL0ENMX8w-46" value="" style="rounded=0;whiteSpace=wrap;html=1;" vertex="1" parent="1">
          <mxGeometry x="530" y="470" width="120" height="60" as="geometry" />
        </mxCell>
        <mxCell id="bSMvVPboWSpiL0ENMX8w-47" value="UDF to check for invalid characters" style="text;html=1;strokeColor=none;fillColor=none;align=center;verticalAlign=middle;whiteSpace=wrap;rounded=0;" vertex="1" parent="1">
          <mxGeometry x="560" y="485" width="60" height="30" as="geometry" />
        </mxCell>
        <mxCell id="bSMvVPboWSpiL0ENMX8w-55" value="If Invalid:" style="text;html=1;strokeColor=none;fillColor=none;align=center;verticalAlign=middle;whiteSpace=wrap;rounded=0;" vertex="1" parent="1">
          <mxGeometry x="100" y="400" width="60" height="30" as="geometry" />
        </mxCell>
        <mxCell id="bSMvVPboWSpiL0ENMX8w-56" value="If Invalid:" style="text;html=1;strokeColor=none;fillColor=none;align=center;verticalAlign=middle;whiteSpace=wrap;rounded=0;" vertex="1" parent="1">
          <mxGeometry x="680" y="400" width="60" height="30" as="geometry" />
        </mxCell>
      </root>
    </mxGraphModel>
  </diagram>
</mxfile>
